<svg xmlns="http://www.w3.org/2000/svg" xmlns:xlink="http://www.w3.org/1999/xlink" width="500" zoomAndPan="magnify" viewBox="0 0 375 225" height="300" preserveAspectRatio="xMidYMid meet" version="1.0"><defs><g/><clipPath id="861db3484b"><path d="M 22.5 49 L 154.5 49 L 154.5 175 L 22.5 175 Z M 22.5 49 " clip-rule="nonzero"/></clipPath></defs><path fill="#67d6e8" d="M 66.800781 92.25 C 71.785156 92.25 72.875 98.503906 78.628906 98.976562 C 84.792969 98.734375 91.097656 99.332031 97.242188 99.085938 C 99.988281 98.972656 101.664062 98.539062 103.863281 96.863281 C 105.675781 95.476562 107.058594 93.105469 109.34375 92.472656 C 111.914062 91.761719 115.925781 92.984375 118.472656 93.785156 C 121.019531 94.585938 123.96875 95.535156 124.929688 98.332031 C 125.273438 99.339844 125.042969 100.039062 125.152344 100.984375 C 125.265625 101.929688 127.042969 102.746094 127.625 103.449219 C 128.203125 104.15625 129.058594 105.53125 129.558594 106.351562 C 136.351562 117.484375 135.054688 131.546875 126.542969 141.347656 C 122.714844 145.753906 115.601562 148.316406 110.070312 145.679688 C 106.25 143.863281 104.449219 139.351562 100.246094 138.230469 C 97.527344 137.511719 94.460938 137.828125 91.6875 137.851562 C 87.285156 137.890625 82.785156 137.789062 78.414062 137.949219 C 72.226562 138.175781 72.238281 140.183594 68.1875 143.761719 C 63.21875 148.148438 57.753906 147.171875 52.34375 144.273438 C 50.746094 143.417969 49.753906 142.859375 48.605469 141.433594 C 40.472656 131.328125 40.207031 116.714844 47.636719 106.140625 C 48.171875 105.378906 49.128906 104.070312 49.769531 103.441406 C 50.324219 102.902344 51.871094 102.101562 52.183594 101.535156 C 52.492188 100.972656 52.371094 100.050781 52.460938 99.449219 C 52.640625 98.214844 53.265625 96.972656 54.195312 96.144531 C 56.402344 94.175781 63.847656 92.242188 66.792969 92.246094 Z M 123.40625 100.316406 C 123.582031 99.058594 122.980469 98.070312 122.003906 97.347656 C 120.015625 95.886719 112.960938 93.96875 110.507812 94.039062 C 109.300781 94.074219 108.199219 95.058594 107.472656 95.945312 C 107.472656 96.351562 110.515625 96.171875 110.921875 96.195312 C 113.628906 96.359375 117 97.460938 119.5 98.519531 C 120.582031 98.976562 121.953125 99.894531 122.921875 100.238281 C 123.085938 100.292969 123.230469 100.339844 123.40625 100.316406 Z M 54.203125 100.316406 C 54.332031 100.449219 57.160156 98.863281 57.558594 98.683594 C 60.40625 97.410156 64.195312 96.398438 67.308594 96.195312 C 67.703125 96.171875 70.21875 96.34375 70.242188 95.945312 C 69.28125 94.382812 68.152344 94.0625 66.382812 94.140625 C 64.085938 94.242188 56.734375 96.039062 55.175781 97.636719 C 54.542969 98.285156 54.109375 99.410156 54.203125 100.316406 Z M 66.09375 104.671875 C 65.933594 104.535156 65.785156 104.449219 65.570312 104.421875 C 64.777344 104.328125 61.359375 104.300781 60.632812 104.433594 C 60.316406 104.492188 59.171875 105.566406 59.082031 105.863281 L 59.082031 110.808594 C 59.59375 111.457031 61.640625 114.589844 62.195312 114.792969 C 62.542969 114.917969 63.59375 115.003906 63.910156 114.804688 L 67.011719 110.914062 C 67.113281 109.628906 67.035156 108.335938 67.050781 107.046875 C 67.0625 106.5 67.335938 106.199219 66.953125 105.613281 C 66.898438 105.527344 66.179688 104.746094 66.09375 104.671875 Z M 110.320312 106.921875 C 109.210938 107.109375 107.765625 108.527344 107.4375 109.589844 C 106.097656 113.90625 111.988281 116.714844 114.507812 113.058594 C 116.648438 109.949219 113.851562 106.324219 110.320312 106.921875 Z M 55.625 113.191406 C 55.503906 113.195312 55.351562 113.273438 55.183594 113.273438 C 54.164062 113.289062 52.382812 113.109375 51.480469 113.273438 C 51.078125 113.347656 50.644531 113.925781 50.347656 114.199219 L 50.191406 120.007812 C 50.441406 120.761719 50.707031 121.429688 51.578125 121.5 C 53.125 121.632812 54.902344 121.433594 56.472656 121.453125 C 57.117188 120.761719 60.335938 118.941406 60.601562 118.285156 C 60.746094 117.925781 60.757812 116.65625 60.519531 116.363281 L 55.972656 113.1875 C 55.855469 113.140625 55.734375 113.191406 55.625 113.191406 Z M 69.597656 113.292969 C 69.289062 113.320312 68.660156 113.910156 68.390625 114.144531 C 67.566406 114.867188 66.804688 115.730469 65.980469 116.464844 C 65.6875 116.933594 65.824219 117.859375 65.875 118.410156 L 69.503906 121.367188 C 70.609375 121.59375 71.746094 121.472656 72.871094 121.492188 C 73.394531 121.503906 73.921875 121.6875 74.503906 121.59375 C 74.976562 121.519531 75.820312 120.589844 75.890625 120.097656 C 76.054688 118.945312 75.878906 117.222656 75.894531 115.988281 C 75.902344 115.421875 76.210938 114.941406 75.78125 114.363281 C 75.625 114.152344 74.753906 113.417969 74.503906 113.378906 C 73.402344 113.203125 71.398438 113.371094 70.1875 113.378906 C 69.988281 113.378906 69.792969 113.273438 69.597656 113.292969 Z M 103.332031 113.710938 C 100 114.066406 98.304688 118.339844 100.992188 120.726562 C 104.679688 124.003906 109.640625 118.851562 106.804688 115.324219 C 105.964844 114.289062 104.699219 113.566406 103.332031 113.710938 Z M 118.035156 113.808594 C 113.9375 114.449219 113.90625 121.0625 118.140625 121.675781 C 124.246094 122.5625 124.285156 112.835938 118.035156 113.808594 Z M 62.402344 120.285156 C 62.21875 120.328125 62.09375 120.445312 61.964844 120.570312 C 61.628906 120.890625 59.175781 123.933594 59.101562 124.195312 L 59.1875 129.320312 C 59.472656 129.726562 59.945312 130.328125 60.449219 130.417969 C 61.113281 130.539062 64.90625 130.550781 65.546875 130.417969 C 65.875 130.351562 66.890625 129.59375 66.953125 129.257812 L 66.933594 124.140625 L 64.277344 120.421875 C 64 120.199219 62.761719 120.203125 62.402344 120.285156 Z M 110.425781 121.523438 C 109.230469 121.710938 107.902344 122.925781 107.492188 124.039062 C 106.214844 127.523438 109.988281 130.8125 113.195312 128.921875 C 117.070312 126.632812 114.925781 120.820312 110.421875 121.519531 Z M 110.425781 121.523438 " fill-opacity="1" fill-rule="nonzero"/><g clip-path="url(#861db3484b)"><path fill="#67d6e8" d="M 136.902344 96.945312 C 137.375 96.492188 140.488281 97.300781 141.261719 97.421875 C 141.875 97.515625 142.550781 97.605469 143.148438 97.589844 C 142.589844 95.980469 142.226562 94.304688 141.679688 92.683594 C 139.382812 85.871094 135.246094 79.210938 130.453125 73.886719 C 128.523438 71.742188 126.535156 70.191406 124.21875 68.5 C 103.964844 53.722656 82.304688 49.96875 59.929688 63.109375 C 54.125 66.519531 48.8125 70.472656 44.539062 75.691406 C 38.988281 82.460938 35.007812 90.398438 33.121094 98.976562 C 33.707031 98.890625 34.308594 98.84375 34.890625 98.742188 C 35.410156 98.65625 38.851562 97.761719 38.988281 98.328125 C 38.441406 102 38.523438 105.714844 38.472656 109.421875 C 38.308594 121.703125 39.148438 134.035156 42.097656 145.992188 C 42.359375 147.050781 43.046875 150.171875 43.566406 150.902344 C 43.980469 151.480469 46.34375 153.046875 47.078125 153.5625 C 55.253906 159.304688 63.605469 163.171875 73.351562 165.542969 C 76.226562 166.242188 79.238281 166.898438 82.207031 166.929688 C 82.925781 166.4375 83.179688 165.464844 84.03125 165.152344 C 85.011719 164.792969 86.085938 165.09375 87.058594 165.105469 C 90.496094 165.144531 95.242188 164.183594 96.695312 168.320312 C 97.546875 170.746094 95.851562 174.277344 93.203125 174.636719 C 90.703125 174.976562 87.582031 174.449219 85.015625 174.652344 C 83.957031 174.53125 83.089844 173.777344 82.585938 172.867188 C 82.300781 172.359375 82.277344 171.640625 81.644531 171.441406 C 80.265625 171.007812 77.933594 170.902344 76.398438 170.621094 C 64.058594 168.371094 52.550781 163.175781 42.699219 155.476562 C 41.792969 154.769531 39.25 152.691406 38.796875 151.765625 C 38.515625 151.191406 38.519531 150.511719 38.273438 149.925781 C 34.800781 150.046875 31.507812 149.585938 28.804688 147.261719 C 24.886719 143.882812 24.527344 139.234375 23.882812 134.394531 C 22.871094 126.773438 22.203125 117.800781 22.632812 110.132812 C 22.859375 106.128906 25.113281 102.855469 28.273438 100.554688 C 29.992188 88.253906 35.949219 75.484375 45.363281 67.253906 C 55.757812 58.160156 70.027344 50.992188 83.976562 50.03125 C 99.742188 48.949219 116.785156 55.632812 129.054688 65.210938 C 139.539062 73.390625 146.371094 86.175781 148.347656 99.285156 C 151.621094 101.386719 154.144531 104.8125 154.367188 108.792969 C 154.789062 116.285156 154.144531 125 153.117188 132.433594 C 152.324219 138.128906 151.886719 143.648438 146.4375 146.835938 C 142.296875 149.261719 137.667969 148.4375 133.070312 148.496094 C 132.96875 148.421875 132.984375 148.296875 132.972656 148.1875 C 132.75 146.339844 134.15625 142.070312 134.589844 140.027344 C 137.308594 127.175781 138.269531 112.003906 137.089844 98.925781 C 137.054688 98.546875 136.707031 97.136719 136.90625 96.945312 Z M 136.902344 96.945312 " fill-opacity="1" fill-rule="nonzero"/></g><g fill="#00e7f1" fill-opacity="1"><g transform="translate(164.79326, 126.206731)"><g><path d="M 9.84375 -18.71875 L 17.234375 -18.71875 L 17.234375 -8.0625 C 17.234375 -5.34375 16.566406 -3.253906 15.234375 -1.796875 C 13.910156 -0.335938 11.953125 0.390625 9.359375 0.390625 C 6.765625 0.390625 4.800781 -0.335938 3.46875 -1.796875 C 2.144531 -3.253906 1.484375 -5.34375 1.484375 -8.0625 L 1.484375 -25.53125 C 1.484375 -28.25 2.144531 -30.335938 3.46875 -31.796875 C 4.800781 -33.253906 6.765625 -33.984375 9.359375 -33.984375 C 11.953125 -33.984375 13.910156 -33.253906 15.234375 -31.796875 C 16.566406 -30.335938 17.234375 -28.25 17.234375 -25.53125 L 17.234375 -22.265625 L 12.234375 -22.265625 L 12.234375 -25.875 C 12.234375 -27.09375 11.984375 -27.945312 11.484375 -28.4375 C 10.992188 -28.9375 10.332031 -29.1875 9.5 -29.1875 C 8.664062 -29.1875 8 -28.9375 7.5 -28.4375 C 7.007812 -27.945312 6.765625 -27.09375 6.765625 -25.875 L 6.765625 -7.734375 C 6.765625 -6.515625 7.007812 -5.664062 7.5 -5.1875 C 8 -4.707031 8.664062 -4.46875 9.5 -4.46875 C 10.332031 -4.46875 10.992188 -4.707031 11.484375 -5.1875 C 11.984375 -5.664062 12.234375 -6.515625 12.234375 -7.734375 L 12.234375 -13.921875 L 9.84375 -13.921875 Z M 9.84375 -18.71875 "/></g></g></g><g fill="#00e7f1" fill-opacity="1"><g transform="translate(183.465233, 126.206731)"><g><path d="M 19.015625 0 L 13.6875 0 L 12.765625 -6.09375 L 6.28125 -6.09375 L 5.375 0 L 0.53125 0 L 5.90625 -33.59375 L 13.625 -33.59375 Z M 6.953125 -10.65625 L 12.046875 -10.65625 L 9.5 -27.640625 Z M 6.953125 -10.65625 "/></g></g></g><g fill="#00e7f1" fill-opacity="1"><g transform="translate(203.001201, 126.206731)"><g><path d="M 13.109375 -9.75 L 16.703125 -33.59375 L 24.046875 -33.59375 L 24.046875 0 L 19.0625 0 L 19.0625 -24.09375 L 15.40625 0 L 10.421875 0 L 6.484375 -23.765625 L 6.484375 0 L 1.875 0 L 1.875 -33.59375 L 9.21875 -33.59375 Z M 13.109375 -9.75 "/></g></g></g><g fill="#00e7f1" fill-opacity="1"><g transform="translate(228.96916, 126.206731)"><g><path d="M 7.203125 -19.4375 L 14.453125 -19.4375 L 14.453125 -14.640625 L 7.203125 -14.640625 L 7.203125 -4.796875 L 16.3125 -4.796875 L 16.3125 0 L 1.921875 0 L 1.921875 -33.59375 L 16.3125 -33.59375 L 16.3125 -28.796875 L 7.203125 -28.796875 Z M 7.203125 -19.4375 "/></g></g></g><g fill="#ffffff" fill-opacity="1"><g transform="translate(246.637022, 126.206731)"><g><path d="M 19.015625 0 L 13.6875 0 L 12.765625 -6.09375 L 6.28125 -6.09375 L 5.375 0 L 0.53125 0 L 5.90625 -33.59375 L 13.625 -33.59375 Z M 6.953125 -10.65625 L 12.046875 -10.65625 L 9.5 -27.640625 Z M 6.953125 -10.65625 "/></g></g></g><g fill="#ffffff" fill-opacity="1"><g transform="translate(266.172989, 126.206731)"><g><path d="M 12.953125 0 C 12.890625 -0.226562 12.828125 -0.4375 12.765625 -0.625 C 12.703125 -0.8125 12.644531 -1.050781 12.59375 -1.34375 C 12.550781 -1.632812 12.519531 -2.003906 12.5 -2.453125 C 12.488281 -2.898438 12.484375 -3.457031 12.484375 -4.125 L 12.484375 -9.40625 C 12.484375 -10.976562 12.207031 -12.082031 11.65625 -12.71875 C 11.113281 -13.363281 10.238281 -13.6875 9.03125 -13.6875 L 7.203125 -13.6875 L 7.203125 0 L 1.921875 0 L 1.921875 -33.59375 L 9.890625 -33.59375 C 12.640625 -33.59375 14.628906 -32.953125 15.859375 -31.671875 C 17.097656 -30.398438 17.71875 -28.46875 17.71875 -25.875 L 17.71875 -23.234375 C 17.71875 -19.773438 16.5625 -17.503906 14.25 -16.421875 C 15.59375 -15.867188 16.515625 -14.976562 17.015625 -13.75 C 17.515625 -12.519531 17.765625 -11.023438 17.765625 -9.265625 L 17.765625 -4.078125 C 17.765625 -3.242188 17.796875 -2.515625 17.859375 -1.890625 C 17.921875 -1.265625 18.082031 -0.632812 18.34375 0 Z M 7.203125 -28.796875 L 7.203125 -18.484375 L 9.265625 -18.484375 C 10.253906 -18.484375 11.03125 -18.738281 11.59375 -19.25 C 12.15625 -19.757812 12.4375 -20.6875 12.4375 -22.03125 L 12.4375 -25.34375 C 12.4375 -26.5625 12.21875 -27.441406 11.78125 -27.984375 C 11.351562 -28.523438 10.675781 -28.796875 9.75 -28.796875 Z M 7.203125 -28.796875 "/></g></g></g><g fill="#ffffff" fill-opacity="1"><g transform="translate(285.468952, 126.206731)"><g><path d="M 7.203125 -19.4375 L 14.453125 -19.4375 L 14.453125 -14.640625 L 7.203125 -14.640625 L 7.203125 -4.796875 L 16.3125 -4.796875 L 16.3125 0 L 1.921875 0 L 1.921875 -33.59375 L 16.3125 -33.59375 L 16.3125 -28.796875 L 7.203125 -28.796875 Z M 7.203125 -19.4375 "/></g></g></g><g fill="#ffffff" fill-opacity="1"><g transform="translate(303.132918, 126.206731)"><g><path d="M 6.625 -24.34375 L 6.625 0 L 1.875 0 L 1.875 -33.59375 L 8.5 -33.59375 L 13.921875 -13.484375 L 13.921875 -33.59375 L 18.625 -33.59375 L 18.625 0 L 13.203125 0 Z M 6.625 -24.34375 "/></g></g></g><g fill="#ffffff" fill-opacity="1"><g transform="translate(323.628885, 126.206731)"><g><path d="M 19.015625 0 L 13.6875 0 L 12.765625 -6.09375 L 6.28125 -6.09375 L 5.375 0 L 0.53125 0 L 5.90625 -33.59375 L 13.625 -33.59375 Z M 6.953125 -10.65625 L 12.046875 -10.65625 L 9.5 -27.640625 Z M 6.953125 -10.65625 "/></g></g></g></svg>